<?xml version="1.0" encoding="UTF-8"?>
<svg version="1.1" xmlns="http://www.w3.org/2000/svg" width="500" height="500">
<path d="M0 0 C31.68 0 63.36 0 96 0 C96 0.33 96 0.66 96 1 C95.10692139 1.02505615 94.21384277 1.0501123 93.29370117 1.07592773 C89.97814546 1.17110186 86.66276271 1.27033283 83.34741211 1.37231445 C81.91288997 1.41560793 80.47831816 1.45728699 79.04370117 1.49731445 C76.9808048 1.55515267 74.91815717 1.61880753 72.85546875 1.68359375 C70.99378052 1.73858032 70.99378052 1.73858032 69.09448242 1.79467773 C65.96446653 1.87144121 65.96446653 1.87144121 63 3 C63.78310547 3.12004395 64.56621094 3.24008789 65.37304688 3.36376953 C98.67997306 8.53091234 131.58251548 15.97300821 162 31 C162.77778809 31.38269043 163.55557617 31.76538086 164.35693359 32.15966797 C185.37308615 42.61087552 204.06381506 55.75849482 221 72 C221.53125488 72.50402344 222.06250977 73.00804688 222.60986328 73.52734375 C267.11870275 115.93434019 286.16844248 175.69982122 295 235 C296.49983085 232.0003383 296.23902055 228.88053039 296.31640625 225.5859375 C296.3475779 224.49147812 296.3475779 224.49147812 296.37937927 223.37490845 C296.44481917 221.04170237 296.50373368 218.70838279 296.5625 216.375 C296.60569053 214.79425905 296.64930499 213.21352961 296.69335938 211.6328125 C296.80049481 207.75532496 296.90177782 203.87772315 297 200 C297.33 200 297.66 200 298 200 C298 232.67 298 265.34 298 299 C297.67 299 297.34 299 297 299 C296.97494385 298.04109863 296.9498877 297.08219727 296.92407227 296.09423828 C296.8300138 292.54201523 296.72978942 288.98998844 296.62768555 285.43798828 C296.58433074 283.89962347 296.54265605 282.36121037 296.50268555 280.82275391 C296.44499602 278.6134586 296.38129821 276.40440652 296.31640625 274.1953125 C296.29133751 273.16085495 296.29133751 273.16085495 296.26576233 272.10549927 C296.19193005 268.42885736 296.19193005 268.42885736 295 265 C294.88519287 265.7621582 294.77038574 266.52431641 294.65209961 267.30957031 C285.80158047 325.19464618 267.1697802 380.06931077 226 423 C225.49597656 423.53125488 224.99195313 424.06250977 224.47265625 424.60986328 C182.02578724 469.16055155 122.34340508 488.06085071 63 497 C66.42882941 498.14294314 69.24082838 498.20964472 72.85546875 498.31640625 C73.84792351 498.3475779 73.84792351 498.3475779 74.86042786 498.37937927 C76.96934852 498.44464727 79.07839135 498.50365344 81.1875 498.5625 C82.61915315 498.60570689 84.05079404 498.64932188 85.48242188 498.69335938 C88.98815154 498.80030506 92.49401786 498.90163641 96 499 C96 499.33 96 499.66 96 500 C64.32 500 32.64 500 0 500 C0 499.67 0 499.34 0 499 C0.89307861 498.97494385 1.78615723 498.9498877 2.70629883 498.92407227 C6.02185454 498.82889814 9.33723729 498.72966717 12.65258789 498.62768555 C14.08711003 498.58439207 15.52168184 498.54271301 16.95629883 498.50268555 C19.0191952 498.44484733 21.08184283 498.38119247 23.14453125 498.31640625 C24.38565674 498.27974854 25.62678223 498.24309082 26.90551758 498.20532227 C30.03553347 498.12855879 30.03553347 498.12855879 33 497 C32.2378418 496.88519287 31.47568359 496.77038574 30.69042969 496.65209961 C-27.20943583 487.79931916 -82.04807165 469.19014814 -125 428 C-125.53125488 427.49597656 -126.06250977 426.99195313 -126.60986328 426.47265625 C-171.11870275 384.06565981 -190.16844248 324.30017878 -199 265 C-200.47206013 267.94412027 -200.23807192 270.96285915 -200.31640625 274.1953125 C-200.3475779 275.25647781 -200.3475779 275.25647781 -200.37937927 276.33908081 C-200.44481078 278.60095425 -200.50372974 280.86294462 -200.5625 283.125 C-200.60569133 284.65756422 -200.64930582 286.19011657 -200.69335938 287.72265625 C-200.80048555 291.48165073 -200.9017709 295.24076292 -201 299 C-201.33 299 -201.66 299 -202 299 C-202 266.33 -202 233.66 -202 200 C-201.67 200 -201.34 200 -201 200 C-200.97494385 200.98919434 -200.9498877 201.97838867 -200.92407227 202.99755859 C-200.83002213 206.66159404 -200.72979571 210.32543885 -200.62768555 213.98925781 C-200.58432759 215.57612657 -200.54265313 217.16304224 -200.50268555 218.75 C-200.44500368 221.02878979 -200.38130362 223.30734322 -200.31640625 225.5859375 C-200.29969376 226.29744965 -200.28298126 227.00896179 -200.26576233 227.74203491 C-200.20278063 231.49660817 -200.20278063 231.49660817 -199 235 C-198.88519287 234.2378418 -198.77038574 233.47568359 -198.65209961 232.69042969 C-189.79931916 174.79056417 -171.19014814 119.95192835 -130 77 C-129.49597656 76.46874512 -128.99195313 75.93749023 -128.47265625 75.39013672 C-86.97932252 31.84024437 -25.70939423 9.68121436 33 3 C29.57117059 1.85705686 26.75917162 1.79035528 23.14453125 1.68359375 C22.48289474 1.66281265 21.82125824 1.64203156 21.13957214 1.62062073 C19.03065148 1.55535273 16.92160865 1.49634656 14.8125 1.4375 C13.38084685 1.39429311 11.94920596 1.35067812 10.51757812 1.30664062 C7.01184846 1.19969494 3.50598214 1.09836359 0 1 C0 0.67 0 0.34 0 0 Z " fill="#FEFEFE" transform="translate(202,0)"/>
<path d="M0 0 C0.73920181 -0.00705963 1.47840363 -0.01411926 2.24000549 -0.02139282 C32.63598331 -0.24590279 32.63598331 -0.24590279 45.9765625 3.203125 C46.79012207 3.40180176 47.60368164 3.60047852 48.44189453 3.80517578 C71.97316016 9.6323395 94.11789066 19.85133232 112.9765625 35.203125 C113.54648926 35.6662207 114.11641602 36.12931641 114.70361328 36.60644531 C122.4421262 42.93852583 129.61589852 49.44961489 135.9765625 57.203125 C136.78609375 58.18796875 137.595625 59.1728125 138.4296875 60.1875 C152.13399674 77.23876236 163.7350181 97.90455677 168.9765625 119.203125 C169.14881348 119.88391113 169.32106445 120.56469727 169.49853516 121.26611328 C170.41184131 124.8898764 171.30096418 128.51949837 172.14453125 132.16015625 C172.28141357 132.74772705 172.4182959 133.33529785 172.55932617 133.94067383 C173.71521491 140.208445 174.14300825 146.34201855 174.1796875 152.69921875 C174.18538757 153.49103043 174.19108765 154.2828421 174.19696045 155.09864807 C174.20635121 156.76847017 174.21292065 158.4383103 174.21679688 160.1081543 C174.22641761 162.60305227 174.25746211 165.09709443 174.2890625 167.59179688 C174.35835008 178.44215201 173.24272183 188.5943889 170.9765625 199.203125 C166.05090216 195.53302514 161.15899465 191.82167358 156.2890625 188.078125 C155.74290283 187.65869629 155.19674316 187.23926758 154.6340332 186.80712891 C153.07852169 185.60970886 151.52746236 184.40651208 149.9765625 183.203125 C149.10177246 182.62232178 148.22698242 182.04151855 147.32568359 181.44311523 C144.9765625 179.203125 144.9765625 179.203125 144.34887695 176.32495117 C144.34440552 174.67716675 144.34440552 174.67716675 144.33984375 172.99609375 C144.32155518 171.77720459 144.3032666 170.55831543 144.28442383 169.30249023 C144.28671997 167.36611694 144.28671997 167.36611694 144.2890625 165.390625 C144.24899637 162.73925158 144.18962306 160.08860467 144.1328125 157.4375 C144.09800781 155.54161133 144.09800781 155.54161133 144.0625 153.60742188 C143.20637603 119.69323823 125.64849211 87.41052463 101.44140625 64.33203125 C73.71054613 38.81712538 38.44771364 28.88093366 1.3828125 29.73046875 C-26.82816609 31.05470271 -54.78579179 42.67522675 -76.0234375 61.203125 C-76.96574219 62.00105469 -77.90804687 62.79898438 -78.87890625 63.62109375 C-103.18307191 84.64455364 -119.15040264 115.33396996 -123.0234375 147.203125 C-123.26951995 152.20714189 -123.25900283 157.1942116 -123.2109375 162.203125 C-123.21029297 163.47929687 -123.20964844 164.75546875 -123.20898438 166.0703125 C-123.17329166 173.82752952 -122.80403694 181.48516138 -122.0234375 189.203125 C-113.78671894 182.95678203 -105.57041585 176.69301031 -97.5234375 170.203125 C-92.25198733 165.95225006 -86.91509545 161.80041992 -81.5234375 157.703125 C-75.41305357 153.05942702 -69.38599618 148.32709881 -63.40844727 143.51391602 C-58.42326243 139.50546379 -53.36853404 135.59771904 -48.28515625 131.71484375 C-45.97843083 129.94740756 -43.69303023 128.15566421 -41.41796875 126.34765625 C-40.80961182 125.86498291 -40.20125488 125.38230957 -39.57446289 124.88500977 C-38.42416363 123.97047741 -37.2759905 123.05326012 -36.13061523 122.13256836 C-31.60990431 118.54225198 -26.85890325 115.3531323 -22.0234375 112.203125 C-13.0234375 119.203125 -4.0234375 126.203125 4.9765625 133.203125 C1.97294075 136.4005288 -1.1979237 139.28832486 -4.5859375 142.078125 C-5.32972656 142.69429687 -6.07351562 143.31046875 -6.83984375 143.9453125 C-9.0234375 145.203125 -9.0234375 145.203125 -11.00390625 145.12109375 C-13.58316977 143.94870124 -15.5717881 142.42137084 -17.7734375 140.640625 C-18.57265625 139.99996094 -19.371875 139.35929688 -20.1953125 138.69921875 C-20.79859375 138.20550781 -21.401875 137.71179688 -22.0234375 137.203125 C-22.51320068 137.57099121 -23.00296387 137.93885742 -23.50756836 138.31787109 C-26.92538257 140.8833758 -30.34572183 143.44517363 -33.77734375 145.9921875 C-41.15530174 151.47932169 -48.42832017 157.06832694 -55.5859375 162.84008789 C-60.07334755 166.45593215 -64.61418175 169.99252107 -69.19140625 173.49365234 C-73.05461034 176.45097738 -76.88948504 179.44206897 -80.7109375 182.453125 C-97.38825195 195.59089017 -97.38825195 195.59089017 -103.88354492 200.49194336 C-106.06190297 202.16904806 -106.06190297 202.16904806 -107.9855957 204.16625977 C-113.8747247 209.72645782 -119.46371076 210.0101275 -127.18945312 209.81835938 C-128.65497928 209.75989554 -130.1204741 209.70064122 -131.5859375 209.640625 C-133.08651534 209.60544887 -134.58717302 209.57352098 -136.08789062 209.54492188 C-139.7347541 209.46843079 -143.37857502 209.34800247 -147.0234375 209.203125 C-147.6484375 206.84895833 -148.2734375 204.49479167 -148.8984375 202.140625 C-149.08905762 201.44187256 -149.27967773 200.74312012 -149.47607422 200.02319336 C-152.53503677 188.12705395 -153.37777694 176.07681297 -153.33911133 163.85131836 C-153.33594338 161.7694891 -153.35957345 159.6890783 -153.38476562 157.60742188 C-153.43029515 147.81174043 -152.13278645 138.77148275 -150.0234375 129.203125 C-149.87843307 128.52764114 -149.73342865 127.85215729 -149.58403015 127.15620422 C-143.06438308 96.80509217 -127.62566723 70.25791541 -106.0234375 48.203125 C-105.26546875 47.39488281 -104.5075 46.58664063 -103.7265625 45.75390625 C-78.02268609 18.87740774 -37.27561404 0.2380784 0 0 Z " fill="#020202" transform="translate(239.0234375,96.796875)"/>
<path d="M0 0 C2.77050284 1.30470691 5.15540487 2.75267214 7.58203125 4.6171875 C8.25911133 5.13563232 8.93619141 5.65407715 9.63378906 6.18823242 C10.35276367 6.74486572 11.07173828 7.30149902 11.8125 7.875 C12.56370117 8.45290283 13.31490234 9.03080566 14.08886719 9.6262207 C19.64226559 13.91275739 25.13139511 18.27587436 30.59692383 22.67358398 C38.89079158 29.34085507 47.27035724 35.90955156 56 42 C56.33 37.38 56.66 32.76 57 28 C63.27 28 69.54 28 76 28 C78.97 35.92 81.94 43.84 85 52 C81 50 81 50 77 46 C76.67 55.24 76.34 64.48 76 74 C79.3 74 82.6 74 86 74 C86 71.69 86 69.38 86 67 C89.82481093 68.66296127 92.90019725 71.15845136 96.125 73.75 C97.3628843 74.73357271 98.60118772 75.7166181 99.83984375 76.69921875 C100.5035498 77.22692871 101.16725586 77.75463867 101.85107422 78.29833984 C105.7790676 81.40878223 109.73355085 84.48516778 113.6875 87.5625 C114.46561035 88.1699707 115.2437207 88.77744141 116.04541016 89.40332031 C117.14248291 90.25748535 117.14248291 90.25748535 118.26171875 91.12890625 C119.23564575 91.88796265 119.23564575 91.88796265 120.22924805 92.66235352 C121.77784744 93.83218339 123.38516592 94.92344395 125 96 C120.41144602 122.15475771 104.05734266 146.18138657 86 165 C85.12214844 165.94101562 84.24429687 166.88203125 83.33984375 167.8515625 C67.38671513 184.64692006 47.58653738 196.77879425 26 205 C25.34660645 205.25233398 24.69321289 205.50466797 24.02001953 205.76464844 C5.568876 212.77755664 -12.78825751 215.36044101 -32.4375 215.375 C-33.49614258 215.37799103 -33.49614258 215.37799103 -34.57617188 215.38104248 C-48.42347324 215.37660631 -62.1197419 214.3429094 -75.4375 210.3125 C-76.75935303 209.92167236 -76.75935303 209.92167236 -78.10791016 209.52294922 C-122.16566648 196.12373614 -157.31040508 166.41356707 -179 126 C-186 112.0368123 -186 112.0368123 -186 107 C-175.77 107 -165.54 107 -155 107 C-153.576875 109.68125 -152.15375 112.3625 -150.6875 115.125 C-145.93319342 123.83239662 -140.42609326 131.46767405 -134 139 C-132.91525391 140.29550781 -132.91525391 140.29550781 -131.80859375 141.6171875 C-111.81585182 164.85728282 -79.90362346 182.2072026 -49.29199219 184.85498047 C-10.89574425 187.28439795 25.90108485 178.7532373 55.453125 153.0234375 C72.91141794 137.46761916 86.90214596 118.46097232 94 96 C93.41621582 95.72704102 92.83243164 95.45408203 92.23095703 95.17285156 C90.0422798 94.0222272 88.24487911 92.7616631 86.3046875 91.234375 C85.59795898 90.68112549 84.89123047 90.12787598 84.16308594 89.55786133 C83.40801758 88.96126709 82.65294922 88.36467285 81.875 87.75 C80.25268825 86.47775735 78.63028996 85.20562506 77.0078125 83.93359375 C76.17797852 83.28116699 75.34814453 82.62874023 74.49316406 81.95654297 C70.59028169 78.8937052 66.66925562 75.85433554 62.75 72.8125 C56.92521601 68.28502589 51.11524659 63.73938255 45.31835938 59.17626953 C39.88964019 54.90619412 34.44253939 50.65981954 28.98168945 46.4309082 C24.97398492 43.32548189 20.98672431 40.1981347 17.02734375 37.03125 C16.2168457 36.38776611 15.40634766 35.74428223 14.57128906 35.08129883 C13.01665514 33.84622147 11.46752679 32.60417255 9.92480469 31.35424805 C9.22129883 30.79777588 8.51779297 30.24130371 7.79296875 29.66796875 C7.1796167 29.17578857 6.56626465 28.6836084 5.93432617 28.17651367 C3.59392011 26.75301035 1.72204203 26.25733475 -1 26 C-3.69699142 27.66661047 -3.69699142 27.66661047 -6.3125 30.1875 C-7.37296376 31.12618083 -8.43694573 32.06089789 -9.50390625 32.9921875 C-10.06867676 33.48686523 -10.63344727 33.98154297 -11.21533203 34.49121094 C-14.2803731 37.08244949 -17.51734472 39.4362762 -20.75 41.8125 C-26.28440394 45.90728472 -31.68318004 50.12658144 -37 54.5 C-42.90287612 59.35278629 -48.92602514 63.99534199 -55.0637207 68.54638672 C-60.3187663 72.45529004 -65.44217496 76.50829899 -70.5402832 80.61889648 C-91.19725104 97.25961428 -91.19725104 97.25961428 -99.07421875 97.1953125 C-99.7580513 97.1924826 -100.44188385 97.18965271 -101.1464386 97.18673706 C-103.32697165 97.17555684 -105.50709145 97.15045691 -107.6875 97.125 C-109.16731177 97.11496738 -110.64712999 97.10584202 -112.12695312 97.09765625 C-115.751436 97.07562481 -119.37567766 97.04111002 -123 97 C-120.29765061 94.24073775 -117.66204728 91.58640071 -114.5390625 89.30859375 C-113.9107251 88.84525635 -113.2823877 88.38191895 -112.63500977 87.90454102 C-111.97170654 87.42041748 -111.30840332 86.93629395 -110.625 86.4375 C-105.18393707 82.41394596 -99.82490074 78.31713196 -94.5625 74.0625 C-89.27148731 69.78866665 -83.91591582 65.61440719 -78.5 61.5 C-72.38953732 56.85640833 -66.36255572 52.12397143 -60.38500977 47.31079102 C-55.91316778 43.71510388 -51.38927963 40.19542965 -46.83178711 36.70922852 C-42.38827176 33.30782734 -37.98574988 29.85661035 -33.59057617 26.39306641 C-28.66050636 22.51115372 -23.70690451 18.66006312 -18.75 14.8125 C-12.45749621 9.92664942 -6.19366107 5.01095192 0 0 Z " fill="#020202" transform="translate(282,209)"/>
<path d="M0 0 C5.94 0 11.88 0 18 0 C18 5.94 18 11.88 18 18 C12.06 18 6.12 18 0 18 C0 12.06 0 6.12 0 0 Z " fill="#0E0E0E" transform="translate(285,280)"/>
<path d="M0 0 C5.94 0 11.88 0 18 0 C18 5.94 18 11.88 18 18 C12.06 18 6.12 18 0 18 C0 12.06 0 6.12 0 0 Z " fill="#0E0E0E" transform="translate(263,280)"/>
<path d="M0 0 C5.94 0 11.88 0 18 0 C18 5.61 18 11.22 18 17 C12.06 17 6.12 17 0 17 C0 11.39 0 5.78 0 0 Z " fill="#070707" transform="translate(285,302)"/>
<path d="M0 0 C5.94 0 11.88 0 18 0 C18 5.61 18 11.22 18 17 C12.06 17 6.12 17 0 17 C0 11.39 0 5.78 0 0 Z " fill="#070707" transform="translate(263,302)"/>
<path d="M0 0 C0.33 0 0.66 0 1 0 C1.10957031 0.86882812 1.21914062 1.73765625 1.33203125 2.6328125 C2.17224141 11.40442577 2.17224141 11.40442577 6 19 C9.26348575 20.37076946 12.54309761 21.260625 16 22 C16 22.66 16 23.32 16 24 C15.38511719 24.18175781 14.77023437 24.36351562 14.13671875 24.55078125 C13.32847656 24.80214844 12.52023437 25.05351562 11.6875 25.3125 C10.88699219 25.55613281 10.08648437 25.79976562 9.26171875 26.05078125 C5.85834947 27.47913831 4.47885959 29.0308794 2.8515625 32.32421875 C1.93437023 35.206222 1.59281878 37.79934021 1.375 40.8125 C1.30023438 41.78832031 1.22546875 42.76414063 1.1484375 43.76953125 C1.09945312 44.50558594 1.05046875 45.24164063 1 46 C0.67 46 0.34 46 0 46 C-0.12117187 45.03578125 -0.24234375 44.0715625 -0.3671875 43.078125 C-0.53476563 41.81484375 -0.70234375 40.5515625 -0.875 39.25 C-1.11863281 37.37054688 -1.11863281 37.37054688 -1.3671875 35.453125 C-1.91198903 32.48025737 -2.30367156 30.46579701 -4 28 C-7.92126804 26.00237289 -11.64917679 24.65921564 -16 24 C-16 23.34 -16 22.68 -16 22 C-15.31292969 21.81824219 -14.62585938 21.63648438 -13.91796875 21.44921875 C-13.01691406 21.19785156 -12.11585938 20.94648438 -11.1875 20.6875 C-9.84751953 20.32205078 -9.84751953 20.32205078 -8.48046875 19.94921875 C-5.73738908 18.8995048 -4.63523583 18.43291184 -3 16 C-2.30954938 13.24103887 -1.75939075 10.60861974 -1.3125 7.8125 C-1.18294922 7.06291016 -1.05339844 6.31332031 -0.91992188 5.54101562 C-0.60259462 3.69581641 -0.29986709 1.848117 0 0 Z " fill="#0D0D0D" transform="translate(250,140)"/>
<path d="M0 0 C0.268125 0.556875 0.53625 1.11375 0.8125 1.6875 C1.204375 2.450625 1.59625 3.21375 2 4 C2.33 4.86625 2.66 5.7325 3 6.625 C6.15284459 10.36900295 10.30797583 10.41019584 15 11 C15 11.33 15 11.66 15 12 C14.31292969 12.09796875 13.62585938 12.1959375 12.91796875 12.296875 C12.01691406 12.44640625 11.11585938 12.5959375 10.1875 12.75 C9.29417969 12.88921875 8.40085938 13.0284375 7.48046875 13.171875 C4.42670446 14.19139945 3.56815853 15.22556568 2 18 C1.27518916 21.65274469 1.27518916 21.65274469 1 25 C0.34 25 -0.32 25 -1 25 C-1.08636719 24.38511719 -1.17273438 23.77023438 -1.26171875 23.13671875 C-2.07899082 18.01226951 -2.07899082 18.01226951 -5.125 14 C-8.79352409 12.72399162 -12.12893484 12.32805637 -16 12 C-16 11.67 -16 11.34 -16 11 C-14.98679688 10.85304687 -14.98679688 10.85304687 -13.953125 10.703125 C-8.38723913 9.81353655 -8.38723913 9.81353655 -3.5 7.1875 C-1.90845755 4.86650059 -0.88867637 2.66602911 0 0 Z " fill="#171717" transform="translate(196,173)"/>
<path d="M0 0 C0.33 0 0.66 0 1 0 C1.10957031 0.61488281 1.21914063 1.22976562 1.33203125 1.86328125 C1.49058594 2.67152344 1.64914062 3.47976562 1.8125 4.3125 C1.96332031 5.11300781 2.11414063 5.91351563 2.26953125 6.73828125 C3.10345786 9.3203321 3.84935782 10.36710501 6 12 C8.03341887 12.77813652 8.03341887 12.77813652 10.1875 13.1875 C11.445625 13.455625 12.70375 13.72375 14 14 C14 14.33 14 14.66 14 15 C12.741875 15.268125 11.48375 15.53625 10.1875 15.8125 C5.87695033 16.83952017 5.87695033 16.83952017 3 20 C2.17447918 22.65533766 1.58116705 25.27298538 1 28 C0.67 28 0.34 28 0 28 C-0.42317708 26.01432292 -0.84635417 24.02864583 -1.26953125 22.04296875 C-2.13792264 19.61425915 -2.95262674 18.56344867 -5 17 C-7.26393971 16.21643098 -7.26393971 16.21643098 -9.6875 15.8125 C-10.49574219 15.65394531 -11.30398438 15.49539062 -12.13671875 15.33203125 C-13.05904297 15.16767578 -13.05904297 15.16767578 -14 15 C-14 14.67 -14 14.34 -14 14 C-13.38511719 13.89042969 -12.77023437 13.78085938 -12.13671875 13.66796875 C-11.32847656 13.50941406 -10.52023437 13.35085937 -9.6875 13.1875 C-8.88699219 13.03667969 -8.08648437 12.88585937 -7.26171875 12.73046875 C-4.66577718 11.89205584 -3.62440509 11.17908 -2 9 C-1.21643098 6.73606029 -1.21643098 6.73606029 -0.8125 4.3125 C-0.65394531 3.50425781 -0.49539063 2.69601563 -0.33203125 1.86328125 C-0.22246094 1.24839844 -0.11289062 0.63351563 0 0 Z " fill="#0D0D0D" transform="translate(303,170)"/>
</svg>
