
<!-- Created by: Easy Logo, www.easylogo.dev, Transformed by: Easy Logo Editor -->
<svg version="1.0" xmlns="http://www.w3.org/2000/svg" width="426.99999999999994px" height="100px"
      viewBox="0 0 2135 500.000000" preserveAspectRatio="xMidYMid meet">
      <g id="easylogo_bgCarrier" stroke-width="0" />
      <g id="easylogo_tracerCarrier" stroke-linecap="round" stroke-linejoin="round"
            transform="translate(-107.5,-107.5), scale(1.43)" stroke="#CCCCCC" stroke-width="1" />
      <g id="easylogo_iconAttributionCarrier" transform="matrix(1, 0, 0, 1, 0, 0)">

            <g id="easylogo_iconCarrier" transform="translate(-107.5,-107.5), scale(1.43)"
                  stroke="#1c1c1c" stroke-width="0.025">
                  <g transform="translate(0.000000,500.000000) scale(0.100000,-0.100000)"
                        fill="#000000" stroke="none">
                        <path
                              d="M2225 4011 c-143 -26 -235 -53 -366 -109 -464 -196 -801 -580 -943 -1074 -71 -245 -74 -546 -10 -820 l16 -68 155 0 154 0 452 352 c249 193 459 357 467 364 13 11 24 6 70 -31 30 -24 59 -44 64 -45 11 0 158 112 153 116 -2 2 -64 51 -138 108 -79 62 -138 101 -144 97 -181 -145 -978 -761 -980 -759 -14 14 -27 204 -22 323 21 530 373 1010 875 1194 168 62 249 75 462 76 154 0 213 -4 280 -19 254 -55 476 -174 661 -353 271 -262 410 -596 412 -985 l0 -136 127 -100 128 -100 14 66 c9 45 13 141 13 292 -1 210 -3 233 -29 345 -76 328 -211 571 -445 805 -263 262 -543 405 -911 466 -121 20 -389 17 -515 -5z" />
                        <path
                              d="M2501 3550 c-3 -99 -41 -154 -115 -165 -25 -4 -46 -11 -46 -15 0 -4 21 -11 46 -15 72 -10 111 -65 115 -160 1 -20 4 -12 10 23 16 97 41 126 118 138 40 6 58 24 24 24 -42 0 -94 23 -110 47 -10 15 -23 56 -29 92 -9 48 -12 56 -13 31z" />
                        <path
                              d="M3031 3272 c-1 -12 -7 -38 -15 -56 -14 -33 -40 -48 -106 -59 -24 -4 -24 -4 3 -6 15 0 43 -7 61 -15 33 -14 44 -33 59 -101 4 -15 5 -13 6 7 3 67 31 96 106 109 l40 6 -35 2 c-55 2 -98 33 -105 78 -9 51 -13 62 -14 35z" />
                        <path
                              d="M1955 3255 c-4 -11 -11 -32 -17 -47 -10 -26 -38 -41 -98 -51 l-25 -4 26 -2 c68 -3 109 -38 109 -92 0 -11 5 -17 10 -14 6 3 10 15 10 25 0 35 42 71 90 78 l45 6 -45 8 c-52 9 -79 33 -90 79 -6 29 -8 31 -15 14z" />
                        <path
                              d="M2210 2425 l-622 -485 154 0 153 0 462 360 c254 198 467 360 473 360 19 0 925 -711 928 -729 4 -24 -98 -225 -158 -309 -148 -210 -363 -379 -602 -476 -157 -63 -274 -87 -448 -93 -235 -8 -425 29 -627 122 -253 117 -500 355 -623 603 l-31 62 -154 0 c-122 0 -155 -3 -155 -13 0 -29 142 -297 201 -382 35 -49 118 -144 184 -210 227 -228 498 -376 821 -447 84 -18 132 -22 314 -22 239 -1 345 14 531 75 473 155 868 541 1030 1007 31 90 31 94 13 107 -10 7 -98 75 -194 150 l-175 136 -3 -35 -3 -36 -50 0 -49 0 0 146 0 145 37 -30 c20 -17 38 -29 40 -28 1 2 -17 53 -40 115 l-42 112 -92 0 -93 0 0 -75 c0 -41 -2 -75 -5 -75 -3 0 -129 97 -280 215 l-274 214 -621 -484z" />
                        <path d="M2630 2115 l0 -85 90 0 90 0 0 85 0 85 -90 0 -90 0 0 -85z" />
                        <path d="M2850 2115 l0 -85 90 0 90 0 0 85 0 85 -90 0 -90 0 0 -85z" />
                        <path d="M2630 1895 l0 -85 90 0 90 0 0 85 0 85 -90 0 -90 0 0 -85z" />
                        <path d="M2850 1895 l0 -85 90 0 90 0 0 85 0 85 -90 0 -90 0 0 -85z" />
                  </g>
            </g>

      </g>

      <g id="easylogo_text" transform="translate(-21.35, -60)">
            <g id="easylogo_textInput" fill="#000000" transform="translate(550 400)">

                  <path
                        d="M62.6 2.4Q45.8 2.4 30.4 -2.1Q15 -6.6 5.6 -13.8L16.6 -38.2Q25.6 -31.8 37.9 -27.7Q50.2 -23.6 62.8 -23.6Q72.4 -23.6 78.3 -25.5Q84.2 -27.4 87 -30.8Q89.8 -34.2 89.8 -38.6Q89.8 -44.2 85.4 -47.5Q81 -50.8 73.8 -52.9Q66.6 -55 57.9 -56.9Q49.2 -58.8 40.5 -61.6Q31.8 -64.4 24.6 -68.8Q17.4 -73.2 12.9 -80.4Q8.4 -87.6 8.4 -98.8Q8.4 -110.8 14.9 -120.7Q21.4 -130.6 34.5 -136.5Q47.6 -142.4 67.4 -142.4Q80.6 -142.4 93.4 -139.3Q106.2 -136.2 116 -130L106 -105.4Q96.2 -111 86.4 -113.7Q76.6 -116.4 67.2 -116.4Q57.8 -116.4 51.8 -114.2Q45.8 -112 43.2 -108.5Q40.6 -105 40.6 -100.4Q40.6 -95 45 -91.7Q49.4 -88.4 56.6 -86.4Q63.8 -84.4 72.5 -82.4Q81.2 -80.4 89.9 -77.8Q98.6 -75.2 105.8 -70.8Q113 -66.4 117.5 -59.2Q122 -52 122 -41Q122 -29.2 115.4 -19.4Q108.8 -9.6 95.7 -3.6Q82.6 2.4 62.6 2.4ZM205.4 1.6Q187 1.6 173.1 -5.6Q159.2 -12.8 151.6 -25.3Q144 -37.8 144 -53.8Q144 -70 151.5 -82.5Q159 -95 172 -102.1Q185 -109.2 201.4 -109.2Q217.2 -109.2 229.9 -102.5Q242.6 -95.8 250 -83.3Q257.4 -70.8 257.4 -53.4Q257.4 -51.6 257.2 -49.3Q257 -47 256.8 -45L169.4 -45L169.4 -63.2L240.4 -63.2L228.4 -57.8Q228.4 -66.2 225 -72.4Q221.6 -78.6 215.6 -82.1Q209.6 -85.6 201.6 -85.6Q193.6 -85.6 187.5 -82.1Q181.4 -78.6 178 -72.3Q174.6 -66 174.6 -57.4L174.6 -52.6Q174.6 -43.8 178.5 -37.1Q182.4 -30.4 189.5 -26.9Q196.6 -23.4 206.2 -23.4Q214.8 -23.4 221.3 -26Q227.8 -28.6 233.2 -33.8L249.8 -15.8Q242.4 -7.4 231.2 -2.9Q220 1.6 205.4 1.6ZM351.2 0L351.2 -21L349.2 -25.6L349.2 -63.2Q349.2 -73.2 343.1 -78.8Q337 -84.4 324.4 -84.4Q315.8 -84.4 307.5 -81.7Q299.2 -79 293.4 -74.4L282.2 -96.2Q291 -102.4 303.4 -105.8Q315.8 -109.2 328.6 -109.2Q353.2 -109.2 366.8 -97.6Q380.4 -86 380.4 -61.4L380.4 0ZM318.4 1.6Q305.8 1.6 296.8 -2.7Q287.8 -7 283 -14.4Q278.2 -21.8 278.2 -31Q278.2 -40.6 282.9 -47.8Q287.6 -55 297.8 -59.1Q308 -63.2 324.4 -63.2L353 -63.2L353 -45L327.8 -45Q316.8 -45 312.7 -41.4Q308.6 -37.8 308.6 -32.4Q308.6 -26.4 313.3 -22.9Q318 -19.4 326.2 -19.4Q334 -19.4 340.2 -23.1Q346.4 -26.8 349.2 -34L354 -19.6Q350.6 -9.2 341.6 -3.8Q332.6 1.6 318.4 1.6ZM454.8 1.6Q441 1.6 428.3 -1.7Q415.6 -5 408.2 -10L418.6 -32.4Q426 -27.8 436.1 -24.9Q446.2 -22 456 -22Q466.8 -22 471.3 -24.6Q475.8 -27.2 475.8 -31.8Q475.8 -35.6 472.3 -37.5Q468.8 -39.4 463 -40.4Q457.2 -41.4 450.3 -42.4Q443.4 -43.4 436.4 -45.1Q429.4 -46.8 423.6 -50.2Q417.8 -53.6 414.3 -59.4Q410.8 -65.2 410.8 -74.4Q410.8 -84.6 416.7 -92.4Q422.6 -100.2 433.8 -104.7Q445 -109.2 460.6 -109.2Q471.6 -109.2 483 -106.8Q494.4 -104.4 502 -99.8L491.6 -77.6Q483.8 -82.2 475.9 -83.9Q468 -85.6 460.6 -85.6Q450.2 -85.6 445.4 -82.8Q440.6 -80 440.6 -75.6Q440.6 -71.6 444.1 -69.6Q447.6 -67.6 453.4 -66.4Q459.2 -65.2 466.1 -64.3Q473 -63.4 480 -61.6Q487 -59.8 492.7 -56.5Q498.4 -53.2 502 -47.5Q505.6 -41.8 505.6 -32.6Q505.6 -22.6 499.6 -14.9Q493.6 -7.2 482.3 -2.8Q471 1.6 454.8 1.6ZM586 1.6Q568.8 1.6 555.5 -5.6Q542.2 -12.8 534.5 -25.3Q526.8 -37.8 526.8 -53.8Q526.8 -70 534.5 -82.5Q542.2 -95 555.5 -102.1Q568.8 -109.2 586 -109.2Q603 -109.2 616.4 -102.1Q629.8 -95 637.4 -82.6Q645 -70.2 645 -53.8Q645 -37.8 637.4 -25.3Q629.8 -12.8 616.4 -5.6Q603 1.6 586 1.6ZM586 -24Q593.8 -24 600 -27.6Q606.2 -31.2 609.8 -37.9Q613.4 -44.6 613.4 -53.8Q613.4 -63.2 609.8 -69.8Q606.2 -76.4 600 -80Q593.8 -83.6 586 -83.6Q578.2 -83.6 572 -80Q565.8 -76.4 562.1 -69.8Q558.4 -63.2 558.4 -53.8Q558.4 -44.6 562.1 -37.9Q565.8 -31.2 572 -27.6Q578.2 -24 586 -24ZM675.8 0L675.8 -107.6L705.6 -107.6L705.6 -77.8L700 -86.8Q705.8 -97.6 716.6 -103.4Q727.4 -109.2 741.2 -109.2Q754 -109.2 764.1 -104.1Q774.2 -99 780 -88.5Q785.8 -78 785.8 -61.6L785.8 0L754.6 0L754.6 -56.8Q754.6 -69.8 748.9 -76Q743.2 -82.2 732.8 -82.2Q725.4 -82.2 719.5 -79.1Q713.6 -76 710.3 -69.6Q707 -63.2 707 -53.2L707 0ZM826.2 0L826.2 -140L889.8 -140Q912.6 -140 930 -131.3Q947.4 -122.6 957.2 -107Q967 -91.4 967 -70Q967 -48.8 957.2 -33.1Q947.4 -17.4 930 -8.7Q912.6 0 889.8 0ZM858.6 -26.6L888.2 -26.6Q902.2 -26.6 912.5 -31.9Q922.8 -37.2 928.5 -47Q934.2 -56.8 934.2 -70Q934.2 -83.4 928.5 -93.1Q922.8 -102.8 912.5 -108.1Q902.2 -113.4 888.2 -113.4L858.6 -113.4ZM1052.6 1.6Q1034.2 1.6 1020.3 -5.6Q1006.4 -12.8 998.8 -25.3Q991.2 -37.8 991.2 -53.8Q991.2 -70 998.7 -82.5Q1006.2 -95 1019.2 -102.1Q1032.2 -109.2 1048.6 -109.2Q1064.4 -109.2 1077.1 -102.5Q1089.8 -95.8 1097.2 -83.3Q1104.6 -70.8 1104.6 -53.4Q1104.6 -51.6 1104.4 -49.3Q1104.2 -47 1104 -45L1016.6 -45L1016.6 -63.2L1087.6 -63.2L1075.6 -57.8Q1075.6 -66.2 1072.2 -72.4Q1068.8 -78.6 1062.8 -82.1Q1056.8 -85.6 1048.8 -85.6Q1040.8 -85.6 1034.7 -82.1Q1028.6 -78.6 1025.2 -72.3Q1021.8 -66 1021.8 -57.4L1021.8 -52.6Q1021.8 -43.8 1025.7 -37.1Q1029.6 -30.4 1036.7 -26.9Q1043.8 -23.4 1053.4 -23.4Q1062 -23.4 1068.5 -26Q1075 -28.6 1080.4 -33.8L1097 -15.8Q1089.6 -7.4 1078.4 -2.9Q1067.2 1.6 1052.6 1.6ZM1187.4 1.6Q1170 1.6 1156.4 -5.5Q1142.8 -12.6 1135.1 -25.2Q1127.4 -37.8 1127.4 -53.8Q1127.4 -70 1135.1 -82.5Q1142.8 -95 1156.4 -102.1Q1170 -109.2 1187.4 -109.2Q1204.4 -109.2 1217 -102.1Q1229.6 -95 1235.6 -81.8L1211.4 -68.8Q1207.2 -76.4 1200.9 -80Q1194.6 -83.6 1187.2 -83.6Q1179.2 -83.6 1172.8 -80Q1166.4 -76.4 1162.7 -69.8Q1159 -63.2 1159 -53.8Q1159 -44.4 1162.7 -37.8Q1166.4 -31.2 1172.8 -27.6Q1179.2 -24 1187.2 -24Q1194.6 -24 1200.9 -27.5Q1207.2 -31 1211.4 -38.8L1235.6 -25.6Q1229.6 -12.6 1217 -5.5Q1204.4 1.6 1187.4 1.6ZM1313.4 1.6Q1296.2 1.6 1282.9 -5.6Q1269.6 -12.8 1261.9 -25.3Q1254.2 -37.8 1254.2 -53.8Q1254.2 -70 1261.9 -82.5Q1269.6 -95 1282.9 -102.1Q1296.2 -109.2 1313.4 -109.2Q1330.4 -109.2 1343.8 -102.1Q1357.2 -95 1364.8 -82.6Q1372.4 -70.2 1372.4 -53.8Q1372.4 -37.8 1364.8 -25.3Q1357.2 -12.8 1343.8 -5.6Q1330.4 1.6 1313.4 1.6ZM1313.4 -24Q1321.2 -24 1327.4 -27.6Q1333.6 -31.2 1337.2 -37.9Q1340.8 -44.6 1340.8 -53.8Q1340.8 -63.2 1337.2 -69.8Q1333.6 -76.4 1327.4 -80Q1321.2 -83.6 1313.4 -83.6Q1305.6 -83.6 1299.4 -80Q1293.2 -76.4 1289.5 -69.8Q1285.8 -63.2 1285.8 -53.8Q1285.8 -44.6 1289.5 -37.9Q1293.2 -31.2 1299.4 -27.6Q1305.6 -24 1313.4 -24ZM1403.2 0L1403.2 -107.6L1433 -107.6L1433 -77.2L1428.8 -86Q1433.6 -97.4 1444.2 -103.3Q1454.8 -109.2 1470 -109.2L1470 -80.4Q1468 -80.6 1466.4 -80.7Q1464.8 -80.8 1463 -80.8Q1450.2 -80.8 1442.3 -73.5Q1434.4 -66.2 1434.4 -50.8L1434.4 0Z" />

            </g>
      </g>
</svg>